<svg width="32" height="32" fill="none" xmlns="http://www.w3.org/2000/svg"><path fill-rule="evenodd" clip-rule="evenodd" d="M29.333 22.119a14.724 14.724 0 0 1-7.214 7.214h7.214V22.12zM9.881 29.333a14.724 14.724 0 0 1-7.214-7.214v7.214H9.88zM29.333 9.881V2.667H22.12a14.724 14.724 0 0 1 7.214 7.214zM9.881 2.667H2.667V9.88A14.724 14.724 0 0 1 9.88 2.667z" fill="#FF8000"/><path fill-rule="evenodd" clip-rule="evenodd" d="M16 32c8.837 0 16-7.163 16-16S24.837 0 16 0 0 7.163 0 16s7.163 16 16 16zm0-1.333c8.1 0 14.667-6.567 14.667-14.667S24.1 1.333 16 1.333 1.333 7.9 1.333 16 7.9 30.667 16 30.667z" fill="#FF8000"/><path d="M10.835 10.112c.062 0 .67-.037 1.827-.112.112.348.367.995.765 1.94.397.932.882 2.075 1.454 3.43.584 1.343 1.05 2.45 1.399 3.32 0 .025.018.037.056.037.037 0 .056-.018.056-.056a242.044 242.044 0 0 0 2.61-6.47l.672-2.164c.373.038.882.056 1.529.056.485 0 1.224-.03 2.219-.093.037.05.056.15.056.298 0 .212-.025.317-.075.317h-.037c-.336 0-.64.1-.914.299-.186.136-.267.472-.242 1.007a747.8 747.8 0 0 1 .26 7.701c.013.672.113 1.244.3 1.716.049.112.223.218.521.317.299.087.51.13.634.13.05 0 .075.112.075.336a.895.895 0 0 1-.037.28 374.005 374.005 0 0 0-2.294-.112c-.249 0-.51.006-.783.019-.274.012-.578.025-.914.037-.323.025-.584.044-.783.056-.05-.05-.075-.143-.075-.28 0-.224.025-.335.075-.335.137 0 .335-.038.596-.112.262-.087.436-.18.523-.28.124-.162.186-.38.186-.653v-1.044l-.186-5.669c-.05-.77-.125-1.156-.224-1.156-.037 0-.069.037-.093.112l-3.562 8.69c-.211.472-.448.708-.709.708a.613.613 0 0 1-.186-.037l-4.177-10.033a478.836 478.836 0 0 1-.299 8.317c0 .274.019.467.056.578.062.137.311.268.746.392s.727.186.877.186c.05 0 .074.112.074.336a.895.895 0 0 1-.037.28 206.596 206.596 0 0 0-2.35-.112c-.335 0-.783.019-1.342.056-.547.037-.883.056-1.007.056-.05-.05-.075-.15-.075-.298 0-.212.025-.318.075-.318.199 0 .51-.062.932-.186.423-.124.665-.286.727-.485.112-.224.18-.64.205-1.25.025-.944.056-2.057.094-3.337.05-1.293.087-2.393.112-3.3.037-.908.056-1.474.056-1.698 0-.236-.02-.41-.056-.522-.038-.1-.25-.193-.635-.28-.372-.087-.64-.13-.801-.13-.05 0-.075-.106-.075-.317 0-.137.025-.23.075-.28.186.012.503.037.95.075.46.025.852.037 1.175.037z" fill="#FF8000"/></svg>